<svg width="54" height="30" viewBox="0 0 54 30" fill="none" xmlns="http://www.w3.org/2000/svg">
<g id="Clip path group">
<mask id="mask0_84_10876" style="mask-type:luminance" maskUnits="userSpaceOnUse" x="0" y="0" width="54" height="30">
<g id="clip0_1000_217147">
<path id="Vector" d="M54 0H0V30H54V0Z" fill="white"/>
</g>
</mask>
<g mask="url(#mask0_84_10876)">
<g id="Group">
<path id="Vector_2" d="M53.9989 11.1338V18.6132H51.3323V13.368H48.7643V18.6132H46.0977V11.1338H53.9989Z" fill="#1C1637"/>
<path id="Vector_3" d="M44.8338 15.2999C44.8338 17.4779 42.9998 18.9148 40.5305 18.9148C37.9757 18.9148 36.1133 17.3935 36.1133 13.9455C36.1133 10.9871 38.0232 8.5484 40.851 8.5015C42.0895 8.5015 44.7504 8.4434 44.7504 8.4434L43.5517 10.6194C43.5517 10.6194 41.4313 10.6232 41.1506 10.6232C39.9311 10.6232 38.8216 11.5312 38.6661 12.773C39.3147 12.1727 40.1758 11.8238 41.2208 11.8238C43.4797 11.8238 44.8338 13.1914 44.8338 15.2999ZM42.097 15.2999C42.097 14.3225 41.4617 13.7504 40.5437 13.7504C39.5973 13.7504 38.9639 14.3357 38.9639 15.313C38.9639 16.2341 39.5992 16.9038 40.5437 16.9038C41.5319 16.9057 42.097 16.1797 42.097 15.2999Z" fill="#1C1637"/>
<path id="Vector_4" d="M33.9988 16.3524C33.9988 16.3524 33.354 16.7107 32.3924 16.7801C31.2848 16.8101 30.3005 16.1366 30.3005 14.936C30.3005 13.7654 31.171 13.0939 32.364 13.0939C33.096 13.0939 34.0652 13.5853 34.0652 13.5853C34.0652 13.5853 34.7745 12.3266 35.1406 11.7C34.4692 11.2067 33.5721 10.9365 32.5309 10.9365C29.9022 10.9365 27.8652 12.5949 27.8652 14.9229C27.8652 17.2809 29.7789 18.8999 32.5309 18.8511C33.3009 18.823 34.3611 18.5622 35.0078 18.1608L33.9988 16.3524Z" fill="#1C1637"/>
<path id="Vector_5" d="M0 6.5303L3.687 13.0248V16.9849L0.00760078 23.4662L0 6.5303Z" fill="#5B57A2"/>
<path id="Vector_6" d="M14.1484 10.661L17.6002 8.575L24.6651 8.5693L14.1484 14.9231V10.661Z" fill="#D90751"/>
<path id="Vector_7" d="M14.1307 6.4926L14.1496 15.09L10.457 12.852V0L14.1307 6.4926Z" fill="#FAB718"/>
<path id="Vector_8" d="M24.6662 8.5693L17.6014 8.5749L14.1307 6.4926L10.457 0L24.6662 8.5693Z" fill="#ED6F26"/>
<path id="Vector_9" d="M14.1496 23.5018V19.3297L10.457 17.1367V30L14.1496 23.5018Z" fill="#63B22F"/>
<path id="Vector_10" d="M17.5909 21.4346L3.687 13.0248L0 6.5303L24.6501 21.4271L17.5909 21.4346Z" fill="#1487C9"/>
<path id="Vector_11" d="M10.457 29.9998L14.1496 23.5015L17.5919 21.4343L24.6511 21.4268L10.457 29.9998Z" fill="#017F36"/>
<path id="Vector_12" d="M0.0078125 23.4658L10.4846 17.1364L6.96071 15.0054L3.68721 16.9845L0.0078125 23.4658Z" fill="#984995"/>
</g>
</g>
</g>
</svg>
