<svg width="20" height="16" viewBox="0 0 20 16" fill="none" xmlns="http://www.w3.org/2000/svg">
<g id="Vector">
<path id="Subtract" d="M1.26758 2.24986C1.26758 1.69873 1.71436 1.25195 2.26549 1.25195H17.7331C18.2842 1.25195 18.731 1.69873 18.731 2.24986V5.03037C17.5626 5.49301 16.7362 6.63298 16.7362 7.96596C16.7362 9.29894 17.5626 10.4389 18.731 10.9016V13.75C18.731 14.3012 18.2842 14.7479 17.7331 14.7479H2.26549C1.71436 14.7479 1.26758 14.3012 1.26758 13.75V10.8989C2.43234 10.4345 3.25548 9.29635 3.25548 7.96596C3.25548 6.63558 2.43234 5.49745 1.26758 5.03308V2.24986Z" stroke="#1A1A1A" stroke-width="1.25"/>
<circle id="Ellipse 3" cx="9.99843" cy="4.5082" r="0.748431" fill="#1A1A1A"/>
<circle id="Ellipse 4" cx="9.99843" cy="8.00038" r="0.748431" fill="#1A1A1A"/>
<ellipse id="Ellipse 5" cx="9.99843" cy="11.4926" rx="0.748431" ry="0.74843" fill="#1A1A1A"/>
</g>
</svg>
