<svg width="25" height="24" viewBox="0 0 25 24" fill="none" xmlns="http://www.w3.org/2000/svg">
<g id="close">
<path id="Union" fill-rule="evenodd" clip-rule="evenodd" d="M6.72748 6.22699C7.02038 5.9341 7.49525 5.9341 7.78814 6.22699L12.5004 10.9393L17.2127 6.227C17.5056 5.9341 17.9805 5.9341 18.2734 6.22699C18.5663 6.51988 18.5663 6.99476 18.2734 7.28765L13.5611 12L18.2734 16.7122C18.5663 17.0051 18.5663 17.48 18.2734 17.7729C17.9805 18.0658 17.5056 18.0658 17.2127 17.7729L12.5004 13.0606L7.78814 17.7729C7.49525 18.0658 7.02037 18.0658 6.72748 17.7729C6.43459 17.48 6.43459 17.0051 6.72748 16.7122L11.4398 12L6.72748 7.28765C6.43459 6.99476 6.43459 6.51989 6.72748 6.22699Z" fill="#0181EF"/>
</g>
</svg>
