<svg width="20" height="20" viewBox="0 0 20 20" fill="none" xmlns="http://www.w3.org/2000/svg">
<g id="f" clip-path="url(#clip0_1249_4398)">
<g id="Vector">
<path d="M20 10C20 4.4772 15.5228 0 10 0C4.4772 0 0 4.4772 0 10C0 14.6896 3.2288 18.6248 7.5844 19.7056V13.056H5.5224V10H7.5844V8.6832C7.5844 5.2796 9.1248 3.702 12.4664 3.702C13.1 3.702 14.1932 3.8264 14.6404 3.9504V6.7204C14.4044 6.6956 13.9944 6.6832 13.4852 6.6832C11.8456 6.6832 11.212 7.3044 11.212 8.9192V10H14.4784L13.9172 13.056H11.212V19.9268C16.1636 19.3288 20 15.1128 20 10Z" fill="#0866FF"/>
<path d="M13.9172 13.056L14.4784 10H11.212V8.9192C11.212 7.3044 11.8456 6.6832 13.4852 6.6832C13.9944 6.6832 14.4044 6.6956 14.6404 6.7204V3.9504C14.1932 3.8264 13.1 3.702 12.4664 3.702C9.1248 3.702 7.5844 5.2796 7.5844 8.6832V10H5.5224V13.056H7.5844V19.7056C8.358 19.8976 9.1668 20 9.9996 20C10.4096 20 10.8148 19.9748 11.212 19.9268V13.056H13.9172Z" fill="white"/>
</g>
</g>
<defs>
<clipPath id="clip0_1249_4398">
<rect width="20" height="20" fill="white"/>
</clipPath>
</defs>
</svg>
