<svg width="20" height="20" viewBox="0 0 20 20" fill="none" xmlns="http://www.w3.org/2000/svg">
<g clip-path="url(#clip0_1249_11804)">
<path d="M9.99985 8.18179V12.0545H15.3817C15.1453 13.3 14.4361 14.3546 13.3725 15.0636L16.618 17.5818C18.5089 15.8364 19.5998 13.2728 19.5998 10.2273C19.5998 9.51826 19.5362 8.83638 19.418 8.1819L9.99985 8.18179Z" fill="#4285F4"/>
<path d="M4.39556 11.9033L3.66359 12.4637L1.07264 14.4818C2.71809 17.7454 6.09057 20 9.99963 20C12.6996 20 14.9634 19.1091 16.618 17.5818L13.3725 15.0636C12.4816 15.6636 11.345 16.0273 9.99963 16.0273C7.39964 16.0273 5.19062 14.2728 4.39965 11.9091L4.39556 11.9033Z" fill="#34A853"/>
<path d="M1.07265 5.51818C0.390868 6.86358 0 8.38178 0 9.99994C0 11.6181 0.390861 13.1364 1.07264 14.4818C1.07264 14.4908 4.39998 11.8999 4.39998 11.8999C4.19998 11.2999 4.08177 10.6636 4.08177 9.99984C4.08177 9.33611 4.19998 8.69979 4.39998 8.09979L1.07265 5.51818Z" fill="#FBBC05"/>
<path d="M9.99984 3.98182C11.4726 3.98182 12.7817 4.49089 13.8271 5.47272L16.6907 2.60912C14.9543 0.990971 12.6999 0 9.99984 0C6.09078 0 2.7181 2.24544 1.07265 5.51818L4.39998 8.09979C5.19084 5.73613 7.39985 3.98182 9.99984 3.98182Z" fill="#EA4335"/>
</g>
<defs>
<clipPath id="clip0_1249_11804">
<rect width="20" height="20" fill="white"/>
</clipPath>
</defs>
</svg>
