<svg width="24" height="24" viewBox="0 0 24 24" fill="none" xmlns="http://www.w3.org/2000/svg">
<g id="tg">
<path id="phone" fill-rule="evenodd" clip-rule="evenodd" d="M1.47503 4.15869C1.23079 2.54173 2.5276 1.25 4.06367 1.25H7.81459C8.12697 1.25 8.40663 1.44361 8.51659 1.73599L9.97202 5.60589C10.0202 5.73398 10.0324 5.87281 10.0073 6.00735L9.27804 9.91931C10.1744 12.0273 11.655 13.4439 14.1107 14.7146L17.9756 13.9657C18.1128 13.9391 18.2547 13.9514 18.3853 14.0012L22.2671 15.4804C22.5579 15.5912 22.7501 15.87 22.7501 16.1812V19.7655C22.7501 21.391 21.3179 22.7101 19.6426 22.3455L19.8021 21.6127L19.6426 22.3455C16.5889 21.6811 10.9317 19.9923 6.96974 16.0303L7.50007 15.5L6.96974 16.0303C3.17461 12.2352 1.90307 6.99253 1.47503 4.15869L2.21661 4.04668L1.47503 4.15869ZM4.06367 2.75C3.34465 2.75 2.86564 3.32183 2.9582 3.93467C3.37098 6.66747 4.5786 11.5178 8.03041 14.9697C11.6788 18.6181 16.9826 20.2317 19.9615 20.8798L19.9616 20.8799C20.6159 21.0222 21.2501 20.524 21.2501 19.7655V16.698L18.051 15.479L14.1428 16.2363C13.9801 16.2678 13.8117 16.2446 13.6636 16.1703C10.7694 14.7176 8.89045 12.9954 7.80372 10.2785C7.75092 10.1466 7.73673 10.0023 7.76278 9.86255L8.49439 5.9381L7.29537 2.75H4.06367Z" fill="#B3B3B3"/>
</g>
</svg>
