<svg width="28" height="28" viewBox="0 0 28 28" fill="none" xmlns="http://www.w3.org/2000/svg">
<g id="tg">
<path id="Union" fill-rule="evenodd" clip-rule="evenodd" d="M1.70898 14.0007C1.70898 7.21215 7.21215 1.70898 14.0007 1.70898C20.7891 1.70898 26.2923 7.21215 26.2923 14.0007C26.2923 20.7891 20.7891 26.2923 14.0007 26.2923C7.21215 26.2923 1.70898 20.7891 1.70898 14.0007ZM14.0007 2.95898C7.9025 2.95898 2.95898 7.9025 2.95898 14.0007C2.95898 20.0987 7.90251 25.0423 14.0007 25.0423C20.0987 25.0423 25.0423 20.0987 25.0423 14.0007C25.0423 7.90251 20.0987 2.95898 14.0007 2.95898ZM21.4493 8.89889C21.6184 9.07318 21.6711 9.3296 21.5847 9.55648L16.918 21.8065C16.8426 22.0045 16.6719 22.1508 16.4647 22.1952C16.2575 22.2395 16.0419 22.1758 15.892 22.0259L10.7464 16.8803L5.63634 15.1769C5.38238 15.0923 5.21053 14.8553 5.20899 14.5876C5.20746 14.3199 5.37657 14.0809 5.62954 13.9934L20.7962 8.74337C21.0256 8.66395 21.2803 8.72459 21.4493 8.89889ZM12.0506 16.4167L16.0935 20.4596L19.6872 11.0262L12.0506 16.4167ZM17.0354 11.368L7.77691 14.5728L10.9818 15.6411L17.0354 11.368Z" fill="#0181EF"/>
</g>
</svg>
