<svg width="16" height="16" viewBox="0 0 16 16" fill="none" xmlns="http://www.w3.org/2000/svg">
<path id="Star 1" d="M6.73807 1.62677C7.24651 0.568429 8.75349 0.568427 9.26193 1.62677L10.5649 4.33903C10.769 4.76384 11.1732 5.05746 11.6402 5.12029L14.6224 5.52138C15.7861 5.67789 16.2517 7.11111 15.4023 7.92171L13.2255 9.99907C12.8845 10.3244 12.7301 10.7995 12.8147 11.2632L13.3548 14.2233C13.5655 15.3784 12.3464 16.2642 11.313 15.7068L8.66458 14.2784C8.24977 14.0547 7.75023 14.0547 7.33542 14.2784L4.68705 15.7068C3.65363 16.2642 2.43446 15.3784 2.6452 14.2233L3.18528 11.2632C3.26987 10.7995 3.1155 10.3244 2.77454 9.99907L0.597682 7.92171C-0.251742 7.11111 0.213939 5.67789 1.3776 5.52138L4.35976 5.12029C4.82685 5.05746 5.23098 4.76384 5.43507 4.33903L6.73807 1.62677Z" fill="#FFC800"/>
</svg>
