<svg width="152" height="44" viewBox="0 0 152 44" fill="none" xmlns="http://www.w3.org/2000/svg">
    <path d="M151.156 38.9255C151.156 41.2704 149.221 43.1697 146.827 43.1697H5.17878C2.78653 43.1697 0.844727 41.2704 0.844727 38.9255V5.07978C0.844727 2.73607 2.78653 0.830078 5.17878 0.830078H146.826C149.221 0.830078 151.155 2.73607 151.155 5.07978L151.156 38.9255Z" fill="#1A1A1A"/>
    <path d="M146.37 0.881376C148.977 0.881376 151.098 2.9535 151.098 5.5V38.5C151.098 41.0465 148.977 43.1186 146.37 43.1186H5.62963C3.02311 43.1186 0.902148 41.0465 0.902148 38.5V5.5C0.902148 2.9535 3.02311 0.881376 5.62963 0.881376H146.37ZM146.37 2.32537e-06H5.62963C2.53474 2.32537e-06 0 2.47638 0 5.5V38.5C0 41.5236 2.53474 44 5.62963 44H146.37C149.465 44 152 41.5236 152 38.5V5.5C152 2.47638 149.465 2.32537e-06 146.37 2.32537e-06Z" fill="#A6A6A6"/>
    <path d="M33.9215 21.7626C33.8889 18.2173 36.8928 16.4925 37.0302 16.4122C35.3289 13.9889 32.692 13.6578 31.7654 13.6314C29.5507 13.4037 27.4024 14.9261 26.2742 14.9261C25.1235 14.9261 23.3862 13.6534 21.5138 13.6908C19.1043 13.7271 16.8502 15.09 15.6139 17.2064C13.0626 21.5217 14.9654 27.8632 17.4098 31.3513C18.6326 33.0596 20.0614 34.967 21.9315 34.8999C23.7611 34.8262 24.4446 33.7603 26.6525 33.7603C28.8402 33.7603 29.482 34.8999 31.3893 34.857C33.3529 34.8262 34.5892 33.141 35.7691 31.4173C37.1822 29.4593 37.7497 27.531 37.7722 27.432C37.726 27.4166 33.9587 26.0119 33.9215 21.7626Z" fill="white"/>
    <path d="M30.3185 11.3368C31.3026 10.1345 31.9759 8.49877 31.789 6.83887C30.3647 6.90047 28.5835 7.80137 27.5578 8.97727C26.6503 10.0135 25.8396 11.7119 26.049 13.3091C27.649 13.4257 29.2917 12.5204 30.3185 11.3368Z" fill="white"/>
    <path d="M60.4008 34.6539H57.8438L56.4431 30.354H51.5746L50.2404 34.6539H47.751L52.5744 20.0151H55.5536L60.4008 34.6539ZM56.0209 28.55L54.7542 24.7275C54.6202 24.337 54.3692 23.4174 53.9987 21.9698H53.9537C53.8062 22.5924 53.5686 23.512 53.2421 24.7275L51.998 28.55H56.0209Z" fill="white"/>
    <path d="M72.8051 29.2465C72.8051 31.0417 72.3085 32.4607 71.3155 33.5024C70.426 34.4297 69.3215 34.8928 68.003 34.8928C66.5798 34.8928 65.5575 34.3934 64.9348 33.3946H64.8898V38.9551H62.4893V27.5734C62.4893 26.4448 62.4589 25.2865 62.4004 24.0985H64.5115L64.6455 25.7716H64.6905C65.4911 24.511 66.7059 23.8818 68.3363 23.8818C69.6108 23.8818 70.6748 24.3735 71.526 25.358C72.3795 26.3436 72.8051 27.6394 72.8051 29.2465ZM70.3596 29.3323C70.3596 28.3049 70.1231 27.4579 69.648 26.7913C69.1289 26.0961 68.432 25.7485 67.5583 25.7485C66.966 25.7485 66.4278 25.9421 65.9471 26.3238C65.4652 26.7088 65.1499 27.2115 65.0024 27.8341C64.9281 28.1245 64.8909 28.3621 64.8909 28.5491V30.3091C64.8909 31.0769 65.1319 31.7248 65.6138 32.2539C66.0957 32.783 66.7217 33.047 67.4918 33.047C68.3959 33.047 69.0996 32.706 69.6029 32.0262C70.1074 31.3453 70.3596 30.4477 70.3596 29.3323Z" fill="white"/>
    <path d="M85.2317 29.2465C85.2317 31.0417 84.7351 32.4607 83.741 33.5024C82.8526 34.4297 81.7481 34.8928 80.4296 34.8928C79.0064 34.8928 77.9841 34.3934 77.3626 33.3946H77.3175V38.9551H74.9171V27.5734C74.9171 26.4448 74.8867 25.2865 74.8281 24.0985H76.9392L77.0732 25.7716H77.1183C77.9177 24.511 79.1325 23.8818 80.764 23.8818C82.0374 23.8818 83.1014 24.3735 83.9549 25.358C84.805 26.3436 85.2317 27.6394 85.2317 29.2465ZM82.7862 29.3323C82.7862 28.3049 82.5486 27.4579 82.0735 26.7913C81.5544 26.0961 80.8597 25.7485 79.9849 25.7485C79.3915 25.7485 78.8544 25.9421 78.3725 26.3238C77.8906 26.7088 77.5765 27.2115 77.429 27.8341C77.3558 28.1245 77.3175 28.3621 77.3175 28.5491V30.3091C77.3175 31.0769 77.5585 31.7248 78.0381 32.2539C78.52 32.7819 79.1461 33.047 79.9184 33.047C80.8226 33.047 81.5263 32.706 82.0296 32.0262C82.534 31.3453 82.7862 30.4477 82.7862 29.3323Z" fill="white"/>
    <path d="M99.1257 30.5489C99.1257 31.7941 98.6832 32.8072 97.7949 33.5893C96.8187 34.444 95.4597 34.8708 93.7134 34.8708C92.1011 34.8708 90.8085 34.5672 89.8301 33.9589L90.3863 32.0042C91.4402 32.6268 92.5965 32.9392 93.8564 32.9392C94.7605 32.9392 95.4642 32.739 95.9698 32.3408C96.473 31.9426 96.7241 31.408 96.7241 30.7414C96.7241 30.1474 96.517 29.6469 96.1015 29.241C95.6883 28.8351 94.9981 28.4578 94.0343 28.1091C91.4109 27.1532 90.1003 25.7529 90.1003 23.9115C90.1003 22.7081 90.5597 21.7214 91.4796 20.9536C92.3961 20.1847 93.6188 19.8008 95.1478 19.8008C96.5113 19.8008 97.644 20.0329 98.5481 20.496L97.948 22.4078C97.1036 21.959 96.1488 21.7346 95.0803 21.7346C94.2358 21.7346 93.576 21.9381 93.1031 22.3429C92.7034 22.7048 92.503 23.1459 92.503 23.6684C92.503 24.247 92.7316 24.7255 93.191 25.1017C93.5907 25.4493 94.3169 25.8255 95.3708 26.2314C96.6599 26.7385 97.6069 27.3314 98.216 28.0112C98.8229 28.6888 99.1257 29.5369 99.1257 30.5489Z" fill="white"/>
    <path d="M107.062 25.8584H104.416V30.9833C104.416 32.2868 104.883 32.938 105.817 32.938C106.246 32.938 106.602 32.9017 106.883 32.8291L106.95 34.61C106.477 34.7827 105.854 34.8696 105.083 34.8696C104.135 34.8696 103.394 34.5869 102.859 34.0226C102.327 33.4572 102.059 32.509 102.059 31.1769V25.8562H100.482V24.0962H102.059V22.1635L104.416 21.4683V24.0962H107.062V25.8584Z" fill="white"/>
    <path d="M119.001 29.2893C119.001 30.9118 118.525 32.2439 117.577 33.2856C116.583 34.3581 115.264 34.8927 113.619 34.8927C112.033 34.8927 110.771 34.379 109.83 33.3516C108.889 32.3242 108.418 31.0273 108.418 29.4642C108.418 27.8285 108.902 26.4887 109.874 25.447C110.843 24.4042 112.152 23.8828 113.797 23.8828C115.382 23.8828 116.657 24.3965 117.62 25.425C118.541 26.4227 119.001 27.7108 119.001 29.2893ZM116.51 29.3652C116.51 28.3917 116.297 27.5568 115.866 26.8605C115.363 26.0179 114.643 25.5977 113.711 25.5977C112.746 25.5977 112.013 26.019 111.51 26.8605C111.079 27.5579 110.866 28.406 110.866 29.4092C110.866 30.3827 111.079 31.2176 111.51 31.9128C112.029 32.7554 112.754 33.1756 113.69 33.1756C114.606 33.1756 115.326 32.7466 115.845 31.8908C116.287 31.1813 116.51 30.3376 116.51 29.3652Z" fill="white"/>
    <path d="M126.803 26.161C126.565 26.1181 126.312 26.0961 126.046 26.0961C125.202 26.0961 124.549 26.4074 124.089 27.0311C123.69 27.5811 123.489 28.2763 123.489 29.1156V34.6541H121.09L121.113 27.4227C121.113 26.2061 121.082 25.0984 121.022 24.0996H123.113L123.201 26.1192H123.268C123.521 25.4251 123.921 24.8663 124.468 24.4472C125.003 24.0699 125.58 23.8818 126.203 23.8818C126.425 23.8818 126.625 23.8972 126.803 23.9247V26.161Z" fill="white"/>
    <path d="M137.539 28.8767C137.539 29.2969 137.511 29.6511 137.452 29.9404H130.25C130.278 30.9832 130.626 31.7807 131.295 32.3307C131.902 32.8224 132.687 33.0688 133.65 33.0688C134.717 33.0688 135.689 32.9027 136.564 32.5694L136.94 34.1974C135.918 34.633 134.711 34.8497 133.318 34.8497C131.643 34.8497 130.328 34.3679 129.371 33.4054C128.416 32.4429 127.938 31.1504 127.938 29.529C127.938 27.9373 128.382 26.6118 129.273 25.5547C130.205 24.4261 131.465 23.8618 133.05 23.8618C134.607 23.8618 135.786 24.4261 136.587 25.5547C137.221 26.4512 137.539 27.56 137.539 28.8767ZM135.25 28.2684C135.266 27.5732 135.11 26.9726 134.784 26.4655C134.369 25.8132 133.73 25.4876 132.871 25.4876C132.087 25.4876 131.448 25.8055 130.961 26.4435C130.561 26.9506 130.323 27.5589 130.25 28.2673H135.25V28.2684Z" fill="white"/>
    <path d="M55.2265 11.0101C55.2265 12.3048 54.8291 13.2794 54.0353 13.9339C53.3001 14.5378 52.2552 14.8403 50.9018 14.8403C50.2308 14.8403 49.6566 14.8117 49.1758 14.7545V7.68036C49.8029 7.58136 50.4785 7.53076 51.2081 7.53076C52.4973 7.53076 53.4689 7.80466 54.1242 8.35246C54.8583 8.97176 55.2265 9.85726 55.2265 11.0101ZM53.9824 11.042C53.9824 10.2027 53.7549 9.55916 53.3001 9.11036C52.8452 8.66266 52.1809 8.43826 51.306 8.43826C50.9345 8.43826 50.6181 8.46246 50.3558 8.51306V13.891C50.501 13.913 50.7667 13.9229 51.1529 13.9229C52.0559 13.9229 52.7529 13.6776 53.2438 13.187C53.7347 12.6964 53.9824 11.9814 53.9824 11.042Z" fill="white"/>
    <path d="M61.8234 12.1408C61.8234 12.9383 61.5903 13.5917 61.1242 14.1042C60.6355 14.6311 59.9881 14.8941 59.1797 14.8941C58.4006 14.8941 57.7802 14.6422 57.3174 14.1362C56.8558 13.6313 56.625 12.9944 56.625 12.2266C56.625 11.4236 56.8626 10.7647 57.34 10.2532C57.8174 9.74165 58.4591 9.48535 59.2676 9.48535C60.0467 9.48535 60.6727 9.73725 61.1467 10.2422C61.5971 10.7328 61.8234 11.3664 61.8234 12.1408ZM60.5995 12.1782C60.5995 11.6997 60.4937 11.2894 60.2831 10.9473C60.0354 10.5337 59.683 10.3269 59.2248 10.3269C58.7508 10.3269 58.3905 10.5337 58.1427 10.9473C57.9311 11.2894 57.8264 11.7063 57.8264 12.1991C57.8264 12.6776 57.9322 13.0879 58.1427 13.43C58.3983 13.8436 58.7541 14.0504 59.2135 14.0504C59.6639 14.0504 60.0174 13.8403 60.2719 13.419C60.4903 13.0703 60.5995 12.6567 60.5995 12.1782Z" fill="white"/>
    <path d="M70.6686 9.59131L69.0078 14.7767H67.927L67.239 12.525C67.0645 11.9629 66.9226 11.4041 66.8123 10.8497H66.7909C66.6884 11.4195 66.5466 11.9772 66.3642 12.525L65.6334 14.7767H64.5402L62.9785 9.59131H64.1911L64.7913 12.0564C64.9365 12.6394 65.0558 13.1949 65.1516 13.7207H65.1729C65.2608 13.2873 65.406 12.7351 65.6109 12.0674L66.3642 9.59241H67.3257L68.0474 12.0146C68.2219 12.6053 68.3638 13.174 68.473 13.7218H68.5057C68.5856 13.1883 68.7061 12.6196 68.866 12.0146L69.51 9.59241H70.6686V9.59131Z" fill="white"/>
    <path d="M76.7861 14.7767H75.6061V11.8067C75.6061 10.8915 75.2503 10.4339 74.5365 10.4339C74.1863 10.4339 73.9037 10.5593 73.6842 10.8112C73.4669 11.0631 73.3565 11.3601 73.3565 11.7V14.7756H72.1766V11.073C72.1766 10.6176 72.1619 10.1237 72.1338 9.58912H73.1708L73.2259 10.3998H73.2586C73.3959 10.1479 73.6009 9.94002 73.87 9.77392C74.1897 9.58032 74.5478 9.48242 74.9396 9.48242C75.435 9.48242 75.8471 9.63862 76.1747 9.95212C76.5823 10.336 76.7861 10.9091 76.7861 11.6703V14.7767Z" fill="white"/>
    <path d="M80.0402 14.7766H78.8613V7.21191H80.0402V14.7766Z" fill="white"/>
    <path d="M86.9865 12.1408C86.9865 12.9383 86.7534 13.5917 86.2873 14.1042C85.7986 14.6311 85.1501 14.8941 84.3428 14.8941C83.5626 14.8941 82.9422 14.6422 82.4805 14.1362C82.0189 13.6313 81.7881 12.9944 81.7881 12.2266C81.7881 11.4236 82.0257 10.7647 82.5031 10.2532C82.9804 9.74165 83.6222 9.48535 84.4295 9.48535C85.2098 9.48535 85.8347 9.73725 86.3098 10.2422C86.7602 10.7328 86.9865 11.3664 86.9865 12.1408ZM85.7615 12.1782C85.7615 11.6997 85.6556 11.2894 85.4451 10.9473C85.1985 10.5337 84.845 10.3269 84.3878 10.3269C83.9127 10.3269 83.5524 10.5337 83.3058 10.9473C83.0942 11.2894 82.9895 11.7063 82.9895 12.1991C82.9895 12.6776 83.0953 13.0879 83.3058 13.43C83.5614 13.8436 83.9172 14.0504 84.3766 14.0504C84.827 14.0504 85.1794 13.8403 85.4338 13.419C85.6534 13.0703 85.7615 12.6567 85.7615 12.1782Z" fill="white"/>
    <path d="M92.6972 14.7764H91.6377L91.5499 14.1791H91.5172C91.1547 14.6554 90.6379 14.8941 89.9668 14.8941C89.4658 14.8941 89.0604 14.7368 88.7553 14.4244C88.4783 14.1406 88.3398 13.7875 88.3398 13.3684C88.3398 12.7348 88.6101 12.2519 89.1539 11.9175C89.6966 11.5831 90.46 11.4192 91.4429 11.4269V11.3301C91.4429 10.647 91.0758 10.306 90.3406 10.306C89.8171 10.306 89.3554 10.4347 88.9569 10.6899L88.717 9.93305C89.2102 9.63495 89.8193 9.48535 90.5377 9.48535C91.9248 9.48535 92.6206 10.2004 92.6206 11.6304V13.54C92.6206 14.0581 92.6465 14.4706 92.6972 14.7764ZM91.4722 12.9944V12.1947C90.1706 12.1727 89.5198 12.5214 89.5198 13.2397C89.5198 13.5103 89.5941 13.7127 89.7461 13.848C89.8981 13.9833 90.0918 14.0504 90.3226 14.0504C90.5816 14.0504 90.8236 13.9701 91.0443 13.8106C91.2661 13.65 91.4024 13.4465 91.453 13.1968C91.4654 13.1407 91.4722 13.0725 91.4722 12.9944Z" fill="white"/>
    <path d="M99.4026 14.7766H98.3555L98.3003 13.9439H98.2677C97.9333 14.5775 97.3635 14.8943 96.563 14.8943C95.9235 14.8943 95.3909 14.649 94.9687 14.1584C94.5465 13.6678 94.3359 13.0309 94.3359 12.2488C94.3359 11.4095 94.5645 10.7297 95.0239 10.2105C95.4686 9.72651 96.0136 9.48451 96.6621 9.48451C97.3748 9.48451 97.8736 9.71881 98.1573 10.1885H98.1798V7.21191H99.3609V13.3796C99.3609 13.8845 99.3745 14.3498 99.4026 14.7766ZM98.1798 12.5898V11.7252C98.1798 11.5756 98.1686 11.4546 98.1472 11.3622C98.0808 11.085 97.9378 10.8518 97.7205 10.6637C97.5009 10.4756 97.2363 10.381 96.9312 10.381C96.4909 10.381 96.1464 10.5515 95.8931 10.8936C95.642 11.2357 95.5148 11.6724 95.5148 12.2059C95.5148 12.7185 95.6352 13.1343 95.8773 13.4544C96.1329 13.7954 96.4774 13.9659 96.9087 13.9659C97.296 13.9659 97.6056 13.824 97.8409 13.5391C98.0684 13.2762 98.1798 12.9594 98.1798 12.5898Z" fill="white"/>
    <path d="M109.494 12.1408C109.494 12.9383 109.261 13.5917 108.795 14.1042C108.306 14.6311 107.66 14.8941 106.851 14.8941C106.073 14.8941 105.452 14.6422 104.988 14.1362C104.527 13.6313 104.296 12.9944 104.296 12.2266C104.296 11.4236 104.533 10.7647 105.011 10.2532C105.488 9.74165 106.13 9.48535 106.94 9.48535C107.718 9.48535 108.345 9.73725 108.818 10.2422C109.268 10.7328 109.494 11.3664 109.494 12.1408ZM108.272 12.1782C108.272 11.6997 108.166 11.2894 107.955 10.9473C107.706 10.5337 107.355 10.3269 106.896 10.3269C106.423 10.3269 106.062 10.5337 105.814 10.9473C105.602 11.2894 105.497 11.7063 105.497 12.1991C105.497 12.6776 105.603 13.0879 105.814 13.43C106.069 13.8436 106.425 14.0504 106.884 14.0504C107.335 14.0504 107.689 13.8403 107.944 13.419C108.161 13.0703 108.272 12.6567 108.272 12.1782Z" fill="white"/>
    <path d="M115.839 14.7767H114.66V11.8067C114.66 10.8915 114.304 10.4339 113.589 10.4339C113.239 10.4339 112.956 10.5593 112.738 10.8112C112.519 11.0631 112.41 11.3601 112.41 11.7V14.7756H111.229V11.073C111.229 10.6176 111.216 10.1237 111.188 9.58912H112.223L112.279 10.3998H112.311C112.45 10.1479 112.655 9.94002 112.923 9.77392C113.243 9.58032 113.6 9.48242 113.993 9.48242C114.488 9.48242 114.9 9.63862 115.227 9.95212C115.636 10.336 115.839 10.9091 115.839 11.6703V14.7767Z" fill="white"/>
    <path d="M123.779 10.4547H122.48V12.9737C122.48 13.6139 122.711 13.934 123.168 13.934C123.38 13.934 123.555 13.9164 123.694 13.8801L123.724 14.7546C123.491 14.8404 123.185 14.8833 122.808 14.8833C122.342 14.8833 121.979 14.7447 121.717 14.4675C121.453 14.1903 121.323 13.7239 121.323 13.0694V10.4547H120.547V9.5912H121.323V8.6408L122.479 8.2998V9.59011H123.778V10.4547H123.779Z" fill="white"/>
    <path d="M130.027 14.7766H128.845V11.8286C128.845 10.8991 128.49 10.4338 127.777 10.4338C127.23 10.4338 126.856 10.7033 126.651 11.2423C126.616 11.3556 126.596 11.4942 126.596 11.657V14.7755H125.417V7.21191H126.596V10.337H126.618C126.99 9.76831 127.522 9.48451 128.213 9.48451C128.701 9.48451 129.106 9.64071 129.426 9.95421C129.826 10.3447 130.027 10.9255 130.027 11.6933V14.7766Z" fill="white"/>
    <path d="M136.47 11.9385C136.47 12.1453 136.454 12.3191 136.426 12.461H132.887C132.903 12.9736 133.072 13.3641 133.399 13.6347C133.699 13.8767 134.085 13.9977 134.558 13.9977C135.081 13.9977 135.559 13.9163 135.989 13.7524L136.174 14.5532C135.67 14.7666 135.078 14.8733 134.392 14.8733C133.57 14.8733 132.923 14.6368 132.455 14.1638C131.984 13.6908 131.751 13.0561 131.751 12.2597C131.751 11.4776 131.968 10.8264 132.406 10.3072C132.863 9.75279 133.482 9.47559 134.262 9.47559C135.025 9.47559 135.605 9.75279 135.997 10.3072C136.313 10.7472 136.47 11.2917 136.47 11.9385ZM135.344 11.6404C135.353 11.2983 135.275 11.0035 135.115 10.7549C134.91 10.4348 134.598 10.2742 134.176 10.2742C133.791 10.2742 133.477 10.4304 133.237 10.7439C133.041 10.9936 132.925 11.2917 132.887 11.6404H135.344Z" fill="white"/>
</svg>
