<svg width="152" height="44" viewBox="0 0 152 44" fill="none" xmlns="http://www.w3.org/2000/svg">
    <g clip-path="url(#clip0_1207_1273)">
        <path d="M0 6.28574C0 2.81421 2.86538 0 6.4 0H145.6C149.134 0 152 2.81422 152 6.28574V37.7143C152 41.1858 149.134 44 145.6 44H6.4C2.86538 44 0 41.1858 0 37.7143V6.28574Z" fill="#1A1A1A"/>
        <path fill-rule="evenodd" clip-rule="evenodd" d="M145.6 0.846154H6.4C3.51273 0.846154 0.974359 3.18066 0.974359 6.28574V37.7143C0.974359 40.8193 3.51273 43.1538 6.4 43.1538H145.6C148.487 43.1538 151.026 40.8193 151.026 37.7143V6.28574C151.026 3.18066 148.487 0.846154 145.6 0.846154ZM6.4 0C2.86538 0 0 2.81421 0 6.28574V37.7143C0 41.1858 2.86538 44 6.4 44H145.6C149.134 44 152 41.1858 152 37.7143V6.28574C152 2.81421 149.134 0 145.6 0H6.4Z" fill="#A6A6A6"/>
        <path d="M11.6681 34.8296C13.7924 36.9284 17.2114 36.9284 24.0494 36.9284H25.2581C32.0961 36.9284 35.5151 36.9284 37.6394 34.8296C39.7636 32.7309 39.7636 29.3529 39.7636 22.5969V21.4027C39.7636 14.6467 39.7636 11.2688 37.6394 9.17C35.5151 7.07129 32.0961 7.07129 25.2581 7.07129H24.0494C17.2114 7.07129 13.7924 7.07129 11.6681 9.17C9.54395 11.2688 9.54395 14.6467 9.54395 21.4027V22.5969C9.54395 29.3529 9.54395 32.7309 11.6681 34.8296Z" fill="#0077FF"/>
        <path fill-rule="evenodd" clip-rule="evenodd" d="M32.8738 26.9163L30.8319 26.4123C30.586 26.3426 30.4124 26.124 30.4037 25.87L30.1488 18.4449C30.0751 17.4622 29.3367 16.6805 28.5652 16.4504C28.5219 16.4374 28.4756 16.4548 28.4499 16.4917C28.4238 16.5291 28.4339 16.5809 28.4703 16.6087C28.6608 16.7545 29.1852 17.23 29.1852 18.0503L29.1837 27.7584C29.1837 28.6957 28.2872 29.3832 27.3624 29.155L25.289 28.6433C25.0591 28.5638 24.8994 28.3523 24.891 28.1082L24.6362 20.6827C24.5625 19.6999 23.8241 18.9183 23.0526 18.6881C23.0092 18.6752 22.963 18.6926 22.9373 18.7294C22.9113 18.7669 22.9213 18.8187 22.9576 18.8465C23.1482 18.9922 23.6726 19.4677 23.6726 20.288L23.6711 28.3802L23.6723 28.3804V29.997C23.6723 30.9344 22.7757 31.622 21.8509 31.3937L15.9944 29.9483C15.1802 29.7473 14.6094 29.0278 14.6094 28.2024V18.4792C14.6094 17.5418 15.5059 16.8543 16.4307 17.0825L20.1209 17.9933V16.2405C20.1209 15.3031 21.0174 14.6156 21.9422 14.8439L25.6322 15.7546V14.0018C25.6322 13.0644 26.5287 12.3768 27.4535 12.6051L33.31 14.0505C34.1242 14.2515 34.6951 14.971 34.6951 15.7964V25.5196C34.6951 26.457 33.7985 27.1445 32.8738 26.9163Z" fill="white"/>
        <path d="M57.4632 34.5716H55.1538L51.4893 29.518H49.5616V34.5716H47.5957V21.2773H52.3291C53.2452 21.2773 54.0659 21.4533 54.7912 21.8053C55.5164 22.1573 56.0763 22.6476 56.4707 23.2762C56.8779 23.8922 57.0815 24.6025 57.0815 25.4071C57.0815 26.4128 56.7697 27.274 56.1463 27.9905C55.5228 28.6945 54.6894 29.1596 53.646 29.386L57.4632 34.5716ZM49.5616 23.0688V27.7453H52.3291C53.1434 27.7453 53.7987 27.5316 54.2949 27.1042C54.8039 26.6642 55.0584 26.0985 55.0584 25.4071C55.0584 24.7156 54.8039 24.1562 54.2949 23.7288C53.7987 23.2888 53.1434 23.0688 52.3291 23.0688H49.5616Z" fill="white"/>
        <path d="M62.6778 34.76C61.9779 34.76 61.3481 34.5903 60.7882 34.2509C60.2284 33.8989 59.7893 33.4211 59.4712 32.8177C59.1531 32.2017 58.9941 31.5103 58.9941 30.7434V24.8223H60.8646V30.5926C60.8646 31.3343 61.0745 31.9377 61.4944 32.4029C61.9143 32.868 62.4551 33.1006 63.1167 33.1006C63.8038 33.1006 64.3764 32.8617 64.8345 32.384C65.2925 31.9063 65.5216 31.3091 65.5216 30.5926V24.8223H67.3921V34.5714H66.056L65.617 33.1006C65.2989 33.6286 64.879 34.0371 64.3573 34.3263C63.8483 34.6154 63.2885 34.76 62.6778 34.76Z" fill="white"/>
        <path d="M74.366 34.7598C73.1318 34.7598 72.0566 34.4455 71.1404 33.8169C70.237 33.1758 69.6199 32.3084 69.2891 31.2146L71.1786 30.9129C71.5476 31.6169 71.9866 32.1386 72.4956 32.478C73.0045 32.8049 73.628 32.9684 74.366 32.9684C75.1167 32.9684 75.7274 32.8049 76.1983 32.478C76.6691 32.1386 76.9044 31.6798 76.9044 31.1015C76.9044 30.674 76.7708 30.3158 76.5037 30.0266C76.2491 29.7375 75.9247 29.5049 75.5303 29.3289C75.1358 29.1529 74.6205 28.958 73.9843 28.7444C73.1318 28.4678 72.4319 28.1912 71.8848 27.9146C71.3377 27.638 70.8732 27.2484 70.4916 26.7455C70.1225 26.23 69.938 25.5764 69.938 24.7844C69.938 24.0426 70.1225 23.3952 70.4916 22.842C70.8732 22.2764 71.3949 21.8426 72.0566 21.5409C72.7183 21.2392 73.4562 21.0884 74.2706 21.0884C75.403 21.0884 76.3764 21.3838 77.1908 21.9746C78.0051 22.5529 78.584 23.3512 78.9276 24.3695L77.0763 24.6712C76.8218 24.0929 76.4592 23.6529 75.9883 23.3512C75.5175 23.0369 74.9641 22.8798 74.3279 22.8798C73.6407 22.8798 73.0745 23.0432 72.6292 23.37C72.1838 23.6844 71.9611 24.118 71.9611 24.6712C71.9611 25.086 72.0884 25.438 72.3429 25.7272C72.6101 26.0164 72.9345 26.2489 73.3163 26.4249C73.7107 26.6009 74.2324 26.802 74.8813 27.0284C75.7084 27.3049 76.3955 27.5878 76.9426 27.8769C77.5025 28.1535 77.9732 28.5495 78.355 29.0649C78.7367 29.5804 78.9276 30.2278 78.9276 31.0072C78.9276 31.7615 78.724 32.4215 78.3169 32.9872C77.9224 33.5529 77.3753 33.9929 76.6754 34.3072C75.9883 34.6089 75.2185 34.7598 74.366 34.7598Z" fill="white"/>
        <path d="M86.8287 32.9497L86.6573 34.5713H84.9203C83.8892 34.5713 83.1073 34.3199 82.5727 33.817C82.0382 33.3142 81.771 32.5913 81.771 31.6485V26.4628H80.0723V24.8222H81.771L82.2865 21.9937H83.641V24.8222H86.6573V26.4628H83.641V31.6485C83.641 32.5159 84.0674 32.9497 84.9203 32.9497H86.8287Z" fill="white"/>
        <path d="M93.0665 34.7601C92.0608 34.7601 91.164 34.5463 90.3753 34.1189C89.5866 33.6914 88.9693 33.0943 88.5234 32.3274C88.0784 31.5607 87.8555 30.6869 87.8555 29.7063C87.8555 28.7258 88.0784 27.8521 88.5234 27.0852C88.9693 26.3183 89.5866 25.7212 90.3753 25.2938C91.164 24.8538 92.0608 24.6338 93.0665 24.6338C94.0714 24.6338 94.9682 24.8538 95.7569 25.2938C96.5465 25.7212 97.1629 26.3183 97.6088 27.0852C98.0538 27.8521 98.2768 28.7258 98.2768 29.7063C98.2768 30.6869 98.0538 31.5607 97.6088 32.3274C97.1629 33.0943 96.5465 33.6914 95.7569 34.1189C94.9682 34.5463 94.0714 34.7601 93.0665 34.7601ZM93.0665 33.0629C94.0334 33.0629 94.8154 32.7549 95.4141 32.1389C96.0246 31.5229 96.3303 30.7121 96.3303 29.7063C96.3303 28.7007 96.0246 27.8898 95.4141 27.2738C94.8154 26.6452 94.0334 26.3309 93.0665 26.3309C92.0988 26.3309 91.3168 26.6452 90.719 27.2738C90.1203 27.8898 89.8213 28.7007 89.8213 29.7063C89.8213 30.6994 90.1203 31.5103 90.719 32.1389C91.3168 32.7549 92.0988 33.0629 93.0665 33.0629Z" fill="white"/>
        <path d="M100.281 34.5714V24.8223H101.637L102.038 26.2177C102.33 25.7274 102.693 25.3754 103.125 25.1617C103.558 24.9354 104.074 24.8223 104.672 24.8223H105.129L105.282 26.5949H104.213C103.526 26.5949 103.01 26.7897 102.668 27.1794C102.324 27.5691 102.152 28.0971 102.152 28.7634V34.5714H100.281Z" fill="white"/>
        <path d="M115.977 29.6309C115.977 29.8823 115.971 30.0772 115.958 30.2154H107.808C107.91 31.0829 108.254 31.7743 108.839 32.2898C109.424 32.8052 110.169 33.0629 111.072 33.0629C111.696 33.0629 112.249 32.9434 112.733 32.7047C113.228 32.4532 113.604 32.1263 113.858 31.7241L115.615 32.0069C115.233 32.8869 114.616 33.5658 113.763 34.0434C112.923 34.5212 111.988 34.7601 110.958 34.7601C109.978 34.7601 109.1 34.5463 108.324 34.1189C107.548 33.6789 106.943 33.0754 106.511 32.3087C106.078 31.5418 105.861 30.6743 105.861 29.7063C105.861 28.7258 106.078 27.8521 106.511 27.0852C106.943 26.3183 107.541 25.7212 108.304 25.2938C109.068 24.8538 109.939 24.6338 110.92 24.6338C111.886 24.6338 112.751 24.8538 113.515 25.2938C114.291 25.7212 114.895 26.3183 115.328 27.0852C115.761 27.8394 115.977 28.6881 115.977 29.6309ZM110.92 26.2743C110.169 26.2743 109.519 26.4943 108.972 26.9343C108.438 27.3743 108.081 27.9652 107.903 28.7069H113.935C113.77 27.9778 113.413 27.3932 112.866 26.9532C112.331 26.5007 111.683 26.2743 110.92 26.2743Z" fill="white"/>
        <path d="M50.3753 16.1784C49.7065 16.1784 49.1052 16.0227 48.5715 15.7114C48.0379 15.3932 47.619 14.9532 47.315 14.3914C47.0178 13.8295 46.8691 13.1966 46.8691 12.4926C46.8691 11.7886 47.0178 11.159 47.315 10.604C47.619 10.0421 48.0345 9.60551 48.5614 9.29413C49.0951 8.97597 49.6963 8.81689 50.3651 8.81689C51.088 8.81689 51.7298 8.99966 52.2905 9.3652C52.8579 9.72397 53.2633 10.2114 53.5065 10.8274L52.4729 10.9898C52.2837 10.6107 52.0034 10.3163 51.6318 10.1064C51.267 9.88982 50.8549 9.78151 50.3955 9.78151C49.9227 9.78151 49.5004 9.89659 49.1289 10.1267C48.7641 10.3569 48.477 10.6784 48.2675 11.0914C48.0649 11.4975 47.9635 11.9646 47.9635 12.4926C47.9635 13.0274 48.0649 13.5012 48.2675 13.9141C48.477 14.3203 48.7675 14.6384 49.139 14.8686C49.5106 15.0987 49.9362 15.2138 50.4158 15.2138C50.8887 15.2138 51.3075 15.1055 51.6723 14.8889C52.0439 14.6655 52.3276 14.3541 52.5235 13.9547L53.5571 14.1172C53.3004 14.7467 52.885 15.2477 52.3107 15.62C51.7365 15.9923 51.0914 16.1784 50.3753 16.1784Z" fill="white"/>
        <path d="M58.8526 16.0767H57.5454L55.6099 13.9038H55.2958V16.0767H54.3027V10.8271H55.2958V12.9493H55.5998L57.4542 10.8271H58.6499L56.4003 13.3656L58.8526 16.0767Z" fill="white"/>
        <path d="M61.2149 10.7256C61.8635 10.7256 62.3735 10.9388 62.7451 11.3653C63.1234 11.785 63.3126 12.3739 63.3126 13.132V16.0767H62.6032L62.3702 15.2542C62.2013 15.5182 61.975 15.7382 61.6912 15.9142C61.4075 16.0902 61.0663 16.1782 60.6677 16.1782C60.3165 16.1782 60.0023 16.1071 59.7253 15.965C59.4484 15.8228 59.2322 15.6265 59.0768 15.376C58.9214 15.1188 58.8438 14.8311 58.8438 14.513C58.8438 14.0188 59.0397 13.6228 59.4315 13.325C59.8233 13.0271 60.3908 12.8782 61.1339 12.8782H62.3195C62.2925 12.4653 62.1776 12.1471 61.975 11.9237C61.7723 11.6936 61.5021 11.5785 61.1643 11.5785C60.9076 11.5785 60.6813 11.6394 60.4854 11.7613C60.2894 11.8831 60.1408 12.0422 60.0395 12.2385L59.1173 12.0862C59.2525 11.6665 59.5126 11.3348 59.8976 11.0911C60.2827 10.8474 60.7218 10.7256 61.2149 10.7256ZM60.8806 15.3354C61.3062 15.3354 61.6507 15.1967 61.9142 14.9191C62.1844 14.6348 62.3195 14.2456 62.3195 13.7514V13.6905H61.1643C60.2861 13.6905 59.8469 13.9545 59.8469 14.4825C59.8469 14.7397 59.9415 14.9462 60.1307 15.1019C60.3198 15.2576 60.5698 15.3354 60.8806 15.3354Z" fill="white"/>
        <path d="M67.2037 14.1678C67.0416 14.2422 66.8491 14.2998 66.6261 14.3404C66.4032 14.381 66.1836 14.4013 65.9675 14.4013C65.3392 14.4013 64.8562 14.2253 64.5184 13.8733C64.1806 13.5213 64.0117 13.0238 64.0117 12.3807V10.8271H65.0048V12.3807C65.0048 13.1321 65.3662 13.5078 66.0891 13.5078C66.5282 13.5078 66.8997 13.4299 67.2037 13.2742V10.8271H68.1968V16.0767H67.2037V14.1678Z" fill="white"/>
        <path d="M71.4278 10.7256C72.0764 10.7256 72.5864 10.9388 72.958 11.3653C73.3363 11.785 73.5254 12.3739 73.5254 13.132V16.0767H72.8161L72.583 15.2542C72.4142 15.5182 72.1878 15.7382 71.9041 15.9142C71.6204 16.0902 71.2792 16.1782 70.8806 16.1782C70.5293 16.1782 70.2152 16.1071 69.9382 15.965C69.6613 15.8228 69.4451 15.6265 69.2897 15.376C69.1343 15.1188 69.0566 14.8311 69.0566 14.513C69.0566 14.0188 69.2526 13.6228 69.6444 13.325C70.0362 13.0271 70.6037 12.8782 71.3468 12.8782H72.5324C72.5053 12.4653 72.3905 12.1471 72.1878 11.9237C71.9852 11.6936 71.715 11.5785 71.3772 11.5785C71.1205 11.5785 70.8942 11.6394 70.6982 11.7613C70.5023 11.8831 70.3537 12.0422 70.2524 12.2385L69.3302 12.0862C69.4653 11.6665 69.7254 11.3348 70.1105 11.0911C70.4956 10.8474 70.9347 10.7256 71.4278 10.7256ZM71.0934 15.3354C71.519 15.3354 71.8636 15.1967 72.127 14.9191C72.3973 14.6348 72.5324 14.2456 72.5324 13.7514V13.6905H71.3772C70.499 13.6905 70.0598 13.9545 70.0598 14.4825C70.0598 14.7397 70.1544 14.9462 70.3436 15.1019C70.5327 15.2576 70.7827 15.3354 71.0934 15.3354Z" fill="white"/>
        <path d="M76.0982 16.0767H74.6289V10.8271H75.5916V14.9598H75.7436L77.8614 10.8271H79.3308V16.0767H78.3681V11.9542H78.2161L76.0982 16.0767ZM76.99 10.1468C76.5509 10.1468 76.1827 10.0318 75.8854 9.80161C75.595 9.56468 75.4227 9.21268 75.3686 8.74561H76.1793C76.2131 8.96222 76.2975 9.12807 76.4326 9.24314C76.5745 9.35145 76.7603 9.40561 76.99 9.40561C77.2197 9.40561 77.4021 9.35145 77.5372 9.24314C77.679 9.12807 77.7635 8.96222 77.7905 8.74561H78.6113C78.5505 9.21268 78.3715 9.56468 78.0742 9.80161C77.7838 10.0318 77.4223 10.1468 76.99 10.1468Z" fill="white"/>
        <path d="M82.7833 16.0767H81.7904V11.741H79.9766V10.8271H84.5972V11.741H82.7833V16.0767Z" fill="white"/>
        <path d="M90.1265 13.4164C90.1265 13.5517 90.1231 13.6567 90.1164 13.7311H85.7895C85.8435 14.1982 86.0259 14.5705 86.3367 14.848C86.6474 15.1256 87.0426 15.2644 87.5223 15.2644C87.8533 15.2644 88.1471 15.2 88.4039 15.0714C88.6673 14.936 88.8666 14.76 89.0017 14.5434L89.934 14.6957C89.7313 15.1696 89.4037 15.5351 88.9511 15.7924C88.5052 16.0496 88.0087 16.1782 87.4615 16.1782C86.9413 16.1782 86.4751 16.0631 86.0631 15.833C85.651 15.596 85.3301 15.2711 85.1004 14.8582C84.8707 14.4453 84.7559 13.9782 84.7559 13.457C84.7559 12.929 84.8707 12.4585 85.1004 12.0456C85.3301 11.6327 85.6476 11.3111 86.0529 11.081C86.4583 10.844 86.921 10.7256 87.4412 10.7256C87.9546 10.7256 88.414 10.844 88.8193 11.081C89.2314 11.3111 89.5523 11.6327 89.782 12.0456C90.0117 12.4517 90.1265 12.9087 90.1265 13.4164ZM87.4412 11.609C87.0426 11.609 86.6981 11.7274 86.4076 11.9644C86.1239 12.2013 85.9347 12.5194 85.8401 12.9188H89.0423C88.9544 12.5262 88.7653 12.2114 88.4748 11.9745C88.1911 11.7308 87.8465 11.609 87.4412 11.609Z" fill="white"/>
        <path d="M94.5846 16.0767H93.1152V10.8271H94.0779V14.9598H94.2299L96.3478 10.8271H97.8171V16.0767H96.8544V11.9542H96.7024L94.5846 16.0767Z" fill="white"/>
        <path d="M101.837 13.396C102.114 13.4773 102.344 13.6262 102.526 13.8428C102.709 14.0527 102.8 14.3133 102.8 14.6247C102.8 14.9157 102.716 15.1797 102.547 15.4167C102.378 15.6468 102.135 15.833 101.817 15.9751C101.506 16.1105 101.145 16.1782 100.733 16.1782C100.179 16.1782 99.7026 16.0496 99.3041 15.7924C98.9055 15.5284 98.642 15.1764 98.5137 14.7364L99.4358 14.584C99.6587 15.0714 100.088 15.3151 100.723 15.3151C101.074 15.3151 101.341 15.2508 101.523 15.1222C101.712 14.9868 101.807 14.8007 101.807 14.5637C101.807 14.3539 101.719 14.1847 101.544 14.056C101.375 13.9274 101.101 13.8631 100.723 13.8631H100.034V12.9899H100.723C101.047 12.9899 101.294 12.929 101.462 12.8071C101.638 12.6853 101.726 12.5228 101.726 12.3197C101.726 12.1031 101.631 11.9271 101.442 11.7917C101.26 11.6564 101.033 11.5887 100.763 11.5887C100.5 11.5887 100.263 11.653 100.054 11.7816C99.8445 11.9102 99.6858 12.0862 99.5777 12.3096L98.6555 12.1471C98.8109 11.6936 99.0778 11.345 99.4561 11.1013C99.8411 10.8508 100.287 10.7256 100.794 10.7256C101.158 10.7256 101.486 10.7899 101.777 10.9185C102.074 11.0471 102.304 11.2265 102.466 11.4567C102.635 11.6868 102.719 11.944 102.719 12.2284C102.719 12.5194 102.638 12.7665 102.476 12.9696C102.314 13.1727 102.101 13.3148 101.837 13.396Z" fill="white"/>
    </g>
    <defs>
        <clipPath id="clip0_1207_1273">
            <rect width="152" height="44" fill="white"/>
        </clipPath>
    </defs>
</svg>
