<svg width="20" height="20" viewBox="0 0 20 20" fill="none" xmlns="http://www.w3.org/2000/svg">
    <path fill-rule="evenodd" clip-rule="evenodd" d="M13.5871 3.125C12.494 3.125 11.4439 3.57424 10.6699 4.37692L10.6698 4.37705L10.449 4.60595C10.3312 4.72804 10.1688 4.79701 9.99921 4.79702C9.82956 4.79702 9.6672 4.72807 9.54941 4.60599L9.32841 4.37695L9.32837 4.37691C7.71859 2.70823 5.10376 2.70823 3.49395 4.37691L3.04415 3.94297L3.49395 4.37691C1.89004 6.03949 1.89003 8.73086 3.49395 10.3935C3.49395 10.3935 3.49396 10.3935 3.49396 10.3935L9.57315 16.695C9.79713 16.9271 10.1705 16.936 10.4055 16.7143C11.804 15.3675 13.1332 13.956 14.4724 12.5338C15.1439 11.8208 15.8179 11.1051 16.5044 10.3935L16.5045 10.3934C17.2738 9.59622 17.7077 8.51477 17.7077 7.38518C17.7077 6.25562 17.2739 5.17424 16.5045 4.37699L16.5043 4.37683C15.7302 3.57419 14.6802 3.125 13.5871 3.125ZM9.99924 3.28525C10.9791 2.38227 12.2551 1.875 13.5871 1.875C15.0255 1.875 16.3986 2.46654 17.4041 3.50912C18.4021 4.54332 18.9577 5.93741 18.9577 7.38518C18.9577 8.83303 18.4019 10.2272 17.404 11.2614C16.7402 11.9494 16.0774 12.6531 15.4112 13.3605C14.0583 14.797 12.691 16.2488 11.2706 17.6166L11.2673 17.6198L11.2673 17.6198C10.5349 18.3148 9.3748 18.2897 8.67355 17.5629L9.10911 17.1427L8.67354 17.5629L2.59434 11.2614L2.59434 11.2613C0.523244 9.11446 0.523239 5.65589 2.59434 3.50904L2.95419 3.85619L2.59434 3.50904C4.62106 1.4082 7.88469 1.3336 9.99924 3.28525Z" fill="#0181EF"/>
</svg>