<svg width="24" height="24" viewBox="0 0 24 24" fill="none" xmlns="http://www.w3.org/2000/svg">
<g id="close">
<path id="Union" fill-rule="evenodd" clip-rule="evenodd" d="M6.22748 6.22699C6.52038 5.9341 6.99525 5.9341 7.28814 6.22699L12.0004 10.9393L16.7127 6.227C17.0056 5.9341 17.4805 5.9341 17.7734 6.22699C18.0663 6.51988 18.0663 6.99476 17.7734 7.28765L13.0611 12L17.7734 16.7122C18.0663 17.0051 18.0663 17.48 17.7734 17.7729C17.4805 18.0658 17.0056 18.0658 16.7127 17.7729L12.0004 13.0606L7.28814 17.7729C6.99525 18.0658 6.52037 18.0658 6.22748 17.7729C5.93459 17.48 5.93459 17.0051 6.22748 16.7122L10.9398 12L6.22748 7.28765C5.93459 6.99476 5.93459 6.51989 6.22748 6.22699Z" fill="white"/>
</g>
</svg>
